<svg width="20" height="24" viewBox="0 0 20 24" fill="none" xmlns="http://www.w3.org/2000/svg">
<path d="M14.025 5.81072C13.425 5.81072 12.8659 5.90209 12.3475 6.08483C11.8291 6.26757 11.3571 6.44991 10.9315 6.63185C10.506 6.81379 10.1372 6.90516 9.82519 6.90596C9.32521 6.90596 8.75324 6.73288 8.10926 6.38672C7.46529 6.04055 6.74972 5.86747 5.96255 5.86747C4.97539 5.86747 4.02543 6.14118 3.11267 6.6886C2.19991 7.23603 1.45314 8.03784 0.872364 9.09404C0.291588 10.1502 0.000799967 11.452 0 12.9992C0 14.433 0.23759 15.8672 0.71277 17.3017C1.18795 18.7363 1.77553 19.9438 2.4755 20.9244C3.07547 21.7544 3.65345 22.4745 4.20943 23.0847C4.7654 23.6949 5.41857 24 6.16894 24C6.66892 24 7.10011 23.9151 7.46249 23.7452C7.82488 23.5753 8.20606 23.4087 8.60604 23.2453C9.00603 23.0819 9.50601 23.0002 10.106 23.0002C10.7308 23.0002 11.2307 23.0786 11.6059 23.2356C11.9811 23.3926 12.3403 23.5528 12.6835 23.7162C13.0267 23.8796 13.4734 23.9614 14.0238 23.9614C14.8238 23.9614 15.5146 23.6502 16.0961 23.0279C16.6777 22.4056 17.2185 21.7234 17.7185 20.9811C18.2808 20.1511 18.69 19.39 18.946 18.6977C19.202 18.0053 19.33 17.6342 19.33 17.5843C19.3172 17.5843 19.1516 17.4962 18.8332 17.3198C18.5148 17.1435 18.1492 16.8666 17.7365 16.4891C17.3237 16.1115 16.9613 15.6148 16.6493 14.9989C16.3373 14.3831 16.1809 13.6284 16.1801 12.7348C16.1801 11.7156 16.3833 10.876 16.7897 10.2158C17.1961 9.55572 17.6085 9.06184 18.0269 8.73419C18.4452 8.40654 18.6732 8.21776 18.7108 8.16785C18.1732 7.40065 17.5825 6.85364 16.9385 6.52679C16.2945 6.19995 15.7037 5.99869 15.1662 5.92302C14.6286 5.84735 14.2474 5.80951 14.0226 5.80951L14.025 5.81072ZM13.1623 3.82913C13.5494 3.38878 13.8558 2.87638 14.0814 2.29192C14.307 1.70747 14.4194 1.10692 14.4186 0.490264C14.4186 0.26405 14.4122 0.100629 14.3994 0C13.7866 0.0128805 13.1523 0.19522 12.4963 0.547019C11.8403 0.898818 11.2995 1.32669 10.8739 1.83064C10.5364 2.22028 10.2364 2.70128 9.97399 3.27366C9.7116 3.84604 9.5804 4.44659 9.5804 5.07532C9.5804 5.27658 9.5992 5.42108 9.6368 5.50883C9.6616 5.50883 9.7052 5.51205 9.7676 5.51849C9.82999 5.52493 9.89879 5.52815 9.97399 5.52815C10.4988 5.52815 11.0643 5.36795 11.6707 5.04755C12.2771 4.72714 12.7739 4.32141 13.1611 3.83034L13.1623 3.82913Z" fill="black"/>
</svg>
