<svg width="10" height="10" viewBox="0 0 10 10" fill="none" xmlns="http://www.w3.org/2000/svg">
<path fill-rule="evenodd" clip-rule="evenodd" d="M0.292893 4.73723C0.480429 4.54969 0.734783 4.44434 1 4.44434H9C9.26522 4.44434 9.51957 4.54969 9.70711 4.73723C9.89464 4.92477 10 5.17912 10 5.44434V6.94434C10 7.60738 9.73661 8.24326 9.26777 8.7121C8.79893 9.18094 8.16304 9.44434 7.5 9.44434H2.5C1.83696 9.44434 1.20107 9.18094 0.732233 8.7121C0.263392 8.24326 0 7.60738 0 6.94434V5.44434C0 5.17912 0.105357 4.92477 0.292893 4.73723ZM1 5.44434V6.94434C1 7.34216 1.15804 7.72369 1.43934 8.005C1.72064 8.2863 2.10218 8.44434 2.5 8.44434H7.5C7.89782 8.44434 8.27935 8.2863 8.56066 8.005C8.84196 7.72369 9 7.34216 9 6.94434V5.44434L1 5.44434Z" fill="#C5C5C5"/>
<path fill-rule="evenodd" clip-rule="evenodd" d="M3.0952 1.0101C2.9689 1.0101 2.84778 1.06331 2.75848 1.15803C2.66918 1.25274 2.61901 1.3812 2.61901 1.51515V5.05051C2.61901 5.32944 2.40581 5.55556 2.14282 5.55556C1.87982 5.55556 1.66663 5.32944 1.66663 5.05051V1.51515C1.66663 1.11331 1.81714 0.727924 2.08504 0.443778C2.35295 0.159631 2.71632 0 3.0952 0H4.52377C4.78676 0 4.99996 0.226119 4.99996 0.505051V1.64141C4.99996 1.92035 4.78676 2.14646 4.52377 2.14646C4.26078 2.14646 4.04758 1.92035 4.04758 1.64141V1.0101H3.0952Z" fill="#C5C5C5"/>
<path fill-rule="evenodd" clip-rule="evenodd" d="M1.97478 8.41352C2.23005 8.55939 2.29903 8.85503 2.12885 9.07384L1.57333 9.78808C1.40315 10.0069 1.05825 10.066 0.802972 9.92014C0.547697 9.77427 0.478716 9.47863 0.6489 9.25982L1.20442 8.54558C1.3746 8.32677 1.7195 8.26764 1.97478 8.41352Z" fill="#C5C5C5"/>
<path fill-rule="evenodd" clip-rule="evenodd" d="M8.49833 8.41352C8.66851 8.26764 8.89845 8.32677 9.0119 8.54558L9.38225 9.25982C9.4957 9.47863 9.44972 9.77427 9.27953 9.92014C9.10935 10.066 8.87941 10.0069 8.76596 9.78808L8.39561 9.07384C8.28216 8.85503 8.32814 8.55939 8.49833 8.41352Z" fill="#C5C5C5"/>
</svg>
