<svg width="10" height="7" viewBox="0 0 10 7" fill="none" xmlns="http://www.w3.org/2000/svg">
<path fill-rule="evenodd" clip-rule="evenodd" d="M0.5 0C0.776142 0 1 0.219161 1 0.48951V3.42657H4V0.979021C4 0.708672 4.22386 0.48951 4.5 0.48951H8.5C8.89782 0.48951 9.27936 0.644231 9.56066 0.919634C9.84196 1.19504 10 1.56856 10 1.95804V5.87413C10 6.14447 9.77614 6.36364 9.5 6.36364C9.22386 6.36364 9 6.14447 9 5.87413V4.40559H1V5.87413C1 6.14447 0.776142 6.36364 0.5 6.36364C0.223858 6.36364 0 6.14447 0 5.87413V0.48951C0 0.219161 0.223858 0 0.5 0ZM5 3.42657H9V1.95804C9 1.82822 8.94732 1.70371 8.85355 1.61191C8.75978 1.5201 8.63261 1.46853 8.5 1.46853H5V3.42657Z" fill="#C5C5C5"/>
<path fill-rule="evenodd" clip-rule="evenodd" d="M1.81824 1.81827C1.81824 1.31619 2.22525 0.90918 2.72733 0.90918C3.22941 0.90918 3.63642 1.31619 3.63642 1.81827C3.63642 2.32035 3.22941 2.72736 2.72733 2.72736C2.22525 2.72736 1.81824 2.32035 1.81824 1.81827Z" fill="#C5C5C5"/>
</svg>
