<svg width="11" height="8" viewBox="0 0 11 8" fill="none" xmlns="http://www.w3.org/2000/svg">
<path fill-rule="evenodd" clip-rule="evenodd" d="M2.81481 5.82714C2.5148 5.82714 2.2716 6.07035 2.2716 6.37035C2.2716 6.67036 2.5148 6.91356 2.81481 6.91356C3.11482 6.91356 3.35802 6.67036 3.35802 6.37035C3.35802 6.07035 3.11482 5.82714 2.81481 5.82714ZM1.18518 6.37035C1.18518 5.47033 1.91479 4.74072 2.81481 4.74072C3.71483 4.74072 4.44444 5.47033 4.44444 6.37035C4.44444 7.27037 3.71483 7.99998 2.81481 7.99998C1.91479 7.99998 1.18518 7.27037 1.18518 6.37035Z" fill="#C5C5C5"/>
<path fill-rule="evenodd" clip-rule="evenodd" d="M8.14818 5.82714C7.84818 5.82714 7.60497 6.07035 7.60497 6.37035C7.60497 6.67036 7.84818 6.91356 8.14818 6.91356C8.44819 6.91356 8.69139 6.67036 8.69139 6.37035C8.69139 6.07035 8.44819 5.82714 8.14818 5.82714ZM6.51855 6.37035C6.51855 5.47033 7.24816 4.74072 8.14818 4.74072C9.0482 4.74072 9.77781 5.47033 9.77781 6.37035C9.77781 7.27037 9.0482 7.99998 8.14818 7.99998C7.24816 7.99998 6.51855 7.27037 6.51855 6.37035Z" fill="#C5C5C5"/>
<path fill-rule="evenodd" clip-rule="evenodd" d="M1.1355 0.329527C1.21875 0.130504 1.4203 0 1.64444 0H6.57778C6.7443 0 6.90179 0.0723889 7.00581 0.196741L9.03382 2.62108H9.31852C9.75465 2.62108 10.1729 2.78677 10.4813 3.0817C10.7897 3.37663 10.963 3.77664 10.963 4.19373V6.2906C10.963 6.58012 10.7175 6.81482 10.4148 6.81482H9.31852C9.01578 6.81482 8.77037 6.58012 8.77037 6.2906C8.77037 6.00108 9.01578 5.76638 9.31852 5.76638H9.86667V4.19373C9.86667 4.0547 9.80891 3.92137 9.70612 3.82306C9.60332 3.72475 9.46389 3.66952 9.31852 3.66952H1.0963V5.76638H1.64444C1.94718 5.76638 2.19259 6.00108 2.19259 6.2906C2.19259 6.58012 1.94718 6.81482 1.64444 6.81482H0.548148C0.245414 6.81482 0 6.58012 0 6.2906V3.1453C0 3.07227 0.0156134 3.00274 0.0438217 2.93957L1.1355 0.329527ZM1.35778 2.62108L2.01556 1.04843H4.93333V2.62108H1.35778ZM6.02963 2.62108H7.62988L6.31432 1.04843H6.02963V2.62108ZM3.28889 6.2906C3.28889 6.00108 3.5343 5.76638 3.83704 5.76638H7.12593C7.42866 5.76638 7.67407 6.00108 7.67407 6.2906C7.67407 6.58012 7.42866 6.81482 7.12593 6.81482H3.83704C3.5343 6.81482 3.28889 6.58012 3.28889 6.2906Z" fill="#C5C5C5"/>
</svg>
