<svg width="15" height="15" viewBox="0 0 15 15" fill="none" xmlns="http://www.w3.org/2000/svg">
<path d="M2.5 4C3.32843 4 4 3.32843 4 2.5C4 1.67157 3.32843 1 2.5 1C1.67157 1 1 1.67157 1 2.5C1 3.32843 1.67157 4 2.5 4Z" stroke="white" stroke-linecap="round" stroke-linejoin="round"/>
<path d="M4 2.5H14" stroke="white" stroke-linecap="round" stroke-linejoin="round"/>
<path d="M7.5 9C8.32843 9 9 8.32843 9 7.5C9 6.67157 8.32843 6 7.5 6C6.67157 6 6 6.67157 6 7.5C6 8.32843 6.67157 9 7.5 9Z" stroke="white" stroke-linecap="round" stroke-linejoin="round"/>
<path d="M1 7.5H6" stroke="white" stroke-linecap="round" stroke-linejoin="round"/>
<path d="M9 7.5H14" stroke="white" stroke-linecap="round" stroke-linejoin="round"/>
<path d="M12.5 14C13.3284 14 14 13.3284 14 12.5C14 11.6716 13.3284 11 12.5 11C11.6716 11 11 11.6716 11 12.5C11 13.3284 11.6716 14 12.5 14Z" stroke="white" stroke-linecap="round" stroke-linejoin="round"/>
<path d="M11 12.5H1" stroke="white" stroke-linecap="round" stroke-linejoin="round"/>
</svg>
