<svg width="15" height="16" viewBox="0 0 15 16" fill="none" xmlns="http://www.w3.org/2000/svg">
<path d="M8.83231 1H1.54154C1.26531 1 1.00039 1.10973 0.80506 1.30506C0.609733 1.50039 0.5 1.76531 0.5 2.04154V13.4985C0.5 13.7747 0.609733 14.0396 0.80506 14.2349C1.00039 14.4303 1.26531 14.54 1.54154 14.54H12.9985C13.2747 14.54 13.5396 14.4303 13.7349 14.2349C13.9303 14.0396 14.04 13.7747 14.04 13.4985V6.20769L8.83231 1Z" stroke="#000001" stroke-linecap="round" stroke-linejoin="round"/>
<path d="M8.83231 5.68692V1L14.04 6.20769H9.35308C9.21496 6.20769 9.0825 6.15283 8.98484 6.05516C8.88717 5.9575 8.83231 5.82504 8.83231 5.68692Z" stroke="#000001" stroke-linecap="round" stroke-linejoin="round"/>
<path d="M4.66615 5.16613V3.60382" stroke="#000001" stroke-linecap="round" stroke-linejoin="round"/>
<path d="M3.10385 9.33229C3.10385 10.1134 3.80168 10.3738 4.66616 10.3738C5.53064 10.3738 6.22847 10.3738 6.22847 9.33229C6.22847 7.76998 3.10385 7.76998 3.10385 6.20768C3.10385 5.16614 3.80168 5.16614 4.66616 5.16614C5.53064 5.16614 6.22847 5.56192 6.22847 6.20768" stroke="#000001" stroke-linecap="round" stroke-linejoin="round"/>
<path d="M4.66615 10.3738V11.9361" stroke="#000001" stroke-linecap="round" stroke-linejoin="round"/>
<path d="M8.83231 10.3738H11.9569" stroke="#000001" stroke-linecap="round" stroke-linejoin="round"/>
</svg>
