<svg width="20" height="20" viewBox="0 0 20 20" fill="none" xmlns="http://www.w3.org/2000/svg">
<g clip-path="url(#clip0_103_424)">
<path d="M19.575 10.225C19.575 9.56667 19.5167 8.94167 19.4167 8.33334H10V12.0917H15.3917C15.15 13.325 14.4417 14.3667 13.3917 15.075V17.575H16.6083C18.4917 15.8333 19.575 13.2667 19.575 10.225Z" fill="#4285F4"/>
<path d="M9.99998 20C12.7 20 14.9583 19.1 16.6083 17.575L13.3916 15.075C12.4916 15.675 11.35 16.0417 9.99998 16.0417C7.39165 16.0417 5.18332 14.2834 4.39165 11.9084H1.07498V14.4834C2.71665 17.75 6.09165 20 9.99998 20Z" fill="#34A853"/>
<path d="M4.39167 11.9083C4.18333 11.3083 4.075 10.6667 4.075 9.99999C4.075 9.33333 4.19167 8.69166 4.39167 8.09166V5.51666H1.075C0.391666 6.86666 0 8.38333 0 9.99999C0 11.6167 0.391666 13.1333 1.075 14.4833L4.39167 11.9083Z" fill="#FBBC05"/>
<path d="M9.99998 3.95833C11.475 3.95833 12.7916 4.46667 13.8333 5.45834L16.6833 2.60833C14.9583 0.991668 12.7 0 9.99998 0C6.09165 0 2.71665 2.25 1.07498 5.51667L4.39165 8.09167C5.18332 5.71667 7.39165 3.95833 9.99998 3.95833Z" fill="#EA4335"/>
</g>
<defs>
<clipPath id="clip0_103_424">
<rect width="20" height="20" fill="white"/>
</clipPath>
</defs>
</svg>
