<svg width="18" height="6" viewBox="0 0 18 6" fill="none" xmlns="http://www.w3.org/2000/svg">
<path d="M14.8205 4.69231C15.8401 4.69231 16.6667 3.86576 16.6667 2.84615C16.6667 1.82655 15.8401 1 14.8205 1C13.8009 1 12.9744 1.82655 12.9744 2.84615C12.9744 3.86576 13.8009 4.69231 14.8205 4.69231Z" stroke="white" stroke-linecap="round" stroke-linejoin="round"/>
<path d="M8.66659 4.69231C9.68619 4.69231 10.5127 3.86576 10.5127 2.84615C10.5127 1.82655 9.68619 1 8.66659 1C7.64699 1 6.82043 1.82655 6.82043 2.84615C6.82043 3.86576 7.64699 4.69231 8.66659 4.69231Z" stroke="white" stroke-linecap="round" stroke-linejoin="round"/>
<path d="M2.51278 4.69231C3.53238 4.69231 4.35893 3.86576 4.35893 2.84615C4.35893 1.82655 3.53238 1 2.51278 1C1.49318 1 0.666626 1.82655 0.666626 2.84615C0.666626 3.86576 1.49318 4.69231 2.51278 4.69231Z" stroke="white" stroke-linecap="round" stroke-linejoin="round"/>
</svg>
