<svg width="18" height="18" viewBox="0 0 18 18" fill="none" xmlns="http://www.w3.org/2000/svg">
<path d="M9.00647 1C10.408 1 11.752 1.55673 12.743 2.54773C13.734 3.53872 14.2907 4.8828 14.2907 6.28427C14.2907 12.1598 16.434 13.3177 17.0129 13.3177H1C1.59125 13.3177 3.7222 12.1475 3.7222 6.28427C3.7222 4.8828 4.27894 3.53872 5.26993 2.54773C6.26092 1.55673 7.605 1 9.00647 1V1Z" stroke="white" stroke-linecap="round" stroke-linejoin="round"/>
<path d="M7.15881 15.5718C7.26529 15.9808 7.50445 16.3429 7.83881 16.6013C8.17318 16.8598 8.58385 17 9.00646 17C9.42907 17 9.83974 16.8598 10.1741 16.6013C10.5085 16.3429 10.7476 15.9808 10.8541 15.5718" stroke="white" stroke-linecap="round" stroke-linejoin="round"/>
</svg>
