<svg width="15" height="16" viewBox="0 0 15 16" fill="none" xmlns="http://www.w3.org/2000/svg">
<path d="M4.80769 1H1.57692C0.982155 1 0.5 1.48215 0.5 2.07692V5.30769C0.5 5.90246 0.982155 6.38462 1.57692 6.38462H4.80769C5.40246 6.38462 5.88462 5.90246 5.88462 5.30769V2.07692C5.88462 1.48215 5.40246 1 4.80769 1Z" stroke="#000001" stroke-linecap="round" stroke-linejoin="round"/>
<path d="M13.4231 1H10.1923C9.59754 1 9.11539 1.48215 9.11539 2.07692V5.30769C9.11539 5.90246 9.59754 6.38462 10.1923 6.38462H13.4231C14.0178 6.38462 14.5 5.90246 14.5 5.30769V2.07692C14.5 1.48215 14.0178 1 13.4231 1Z" stroke="#000001" stroke-linecap="round" stroke-linejoin="round"/>
<path d="M4.80769 9.61536H1.57692C0.982155 9.61536 0.5 10.0975 0.5 10.6923V13.923C0.5 14.5178 0.982155 15 1.57692 15H4.80769C5.40246 15 5.88462 14.5178 5.88462 13.923V10.6923C5.88462 10.0975 5.40246 9.61536 4.80769 9.61536Z" stroke="#000001" stroke-linecap="round" stroke-linejoin="round"/>
<path d="M13.4231 9.61536H10.1923C9.59754 9.61536 9.11539 10.0975 9.11539 10.6923V13.923C9.11539 14.5178 9.59754 15 10.1923 15H13.4231C14.0178 15 14.5 14.5178 14.5 13.923V10.6923C14.5 10.0975 14.0178 9.61536 13.4231 9.61536Z" stroke="#000001" stroke-linecap="round" stroke-linejoin="round"/>
</svg>
