<svg width="26" height="26" viewBox="0 0 26 26" fill="none" xmlns="http://www.w3.org/2000/svg">
<path d="M13 14.8461C15.549 14.8461 17.6154 12.7797 17.6154 10.2307C17.6154 7.68173 15.549 5.61536 13 5.61536C10.451 5.61536 8.38461 7.68173 8.38461 10.2307C8.38461 12.7797 10.451 14.8461 13 14.8461Z" stroke="#000001" stroke-linecap="round" stroke-linejoin="round"/>
<path d="M3.95384 25C4.37756 22.9133 5.50965 21.0373 7.15829 19.6898C8.80693 18.3423 10.8707 17.6061 13 17.6061C15.1293 17.6061 17.1931 18.3423 18.8417 19.6898C20.4903 21.0373 21.6224 22.9133 22.0461 25" stroke="#000001" stroke-linecap="round" stroke-linejoin="round"/>
<path d="M23.1538 1H2.84615C1.82655 1 1 1.82655 1 2.84615V23.1538C1 24.1734 1.82655 25 2.84615 25H23.1538C24.1734 25 25 24.1734 25 23.1538V2.84615C25 1.82655 24.1734 1 23.1538 1Z" stroke="#000001" stroke-linecap="round" stroke-linejoin="round"/>
</svg>
